<?xml version="1.0" encoding="utf-8"?>
<!-- Generator: Adobe Illustrator 26.3.1, SVG Export Plug-In . SVG Version: 6.00 Build 0)  -->
<svg version="1.1" id="Capa_1" xmlns="http://www.w3.org/2000/svg" xmlns:xlink="http://www.w3.org/1999/xlink" x="0px" y="0px"
	 viewBox="0 0 195 70" style="enable-background:new 0 0 195 70;" xml:space="preserve">
<style type="text/css">
	.st0{fill:#1D1D1B;}
	.st1{opacity:0;}
	.st2{fill:none;stroke:#FFFFFF;stroke-width:1.838;stroke-dasharray:11.029;}
	.st3{fill:none;stroke:#000000;stroke-width:1.838;stroke-dasharray:11.029;stroke-dashoffset:11;}
	.st4{fill:none;stroke:#FFFFFF;stroke-width:1.838;stroke-dasharray:5.515;}
	.st5{fill:none;stroke:#000000;stroke-width:1.838;stroke-dasharray:5.515;stroke-dashoffset:5;}
</style>
<path class="st0" d="M68,29.7h-5.3c-0.6-3.5-2.4-7.1-4.1-10l3.5-3.5c0.6-0.6,0.6-2.4,0-2.9L58,9.1c-0.6-0.6-2.4-0.6-2.9,0l-3.5,3.5
	c-2.9-1.8-6.5-3.5-10-4.1V3.3c0-1.2-1.2-2.4-2.4-2.4h-5.9c-1.2,0-2.4,1.2-2.4,2.4v5.3c-3.5,0.6-7.1,1.8-10,4.1l-3.5-3.5
	c-0.6-0.6-2.4-0.6-2.9,0l-4.1,4.1c-0.6,0.6-0.6,2.4,0,2.9l3.5,3.5c-1.8,2.9-3.5,6.5-4.1,10H4.5c-1.2,0-2.4,1.2-2.4,2.4v5.9
	c0,1.2,1.2,2.4,2.4,2.4h5.3c0.6,3.5,2.4,7.1,4.1,10l-3.5,3.5c-0.6,0.6-0.6,2.4,0,2.9l4.1,4.1c0.6,0.6,2.4,0.6,2.9,0l3.5-3.5
	c2.9,1.8,6.5,3.5,10,4.1v5.3c0,1.2,1.2,2.4,2.4,2.4h5.9c1.2,0,2.4-1.2,2.4-2.4v-5.3c3.5-0.6,7.1-2.4,10-4.1l3.5,3.5
	c0.6,0.6,2.4,0.6,2.9,0l4.1-4.1c0.6-0.6,0.6-2.4,0-2.9l-3.5-3.5c1.8-2.9,3.5-6.5,4.1-10H68c1.2,0,2.4-1.2,2.4-2.4v-5.9
	C70.3,30.9,69.2,29.7,68,29.7z M46.2,33.8c0,0,0,0-0.6,0h-5.3v12.9c0,0.6-0.6,1.2-1.2,1.2h-7.1c-0.6,0-1.2-0.6-1.2-1.2V33.8h-4.7
	c0-0.2,0-0.4,0-0.6l9.4-11.2c0-0.6,0.6-0.6,1.2,0l9.4,11.2V33.8z"/>
<g>
	<g>
		<path id="def-946e4580-ab01-4180-a3d3-878ac3d84478_00000094581670927045871010000015770106734175047042_" class="st0" d="
			M90.6,7.2h-7.1v32.7H88V16.8l3.8,23.1h4.9l3.5-23.4v23.4h4.9V7.2H98l-3.5,23.2L90.6,7.2z M117.7,14.7c0-2.3,1-3.2,2.7-3.2
			c1.6,0,2.7,0.9,2.7,3.2v17.6c0,2.3-1,3.2-2.7,3.2c-1.6,0-2.7-0.9-2.7-3.2V14.7z M112.6,32c0,5.2,2.8,8.2,7.8,8.2s7.8-3,7.8-8.2V15
			c0-5.2-2.8-8.2-7.8-8.2s-7.8,3-7.8,8.2V32z M135.7,39.9h5.1V7.2h-5.1V39.9z M152.6,7.2h-5.2l5,32.7h7.7l5-32.7h-4.7l-3.9,26.7
			L152.6,7.2z M176.9,11.9h8.9V7.2h-14v32.7h14v-4.7h-8.9v-9.6h7v-4.7h-7V11.9z"/>
	</g>
	<g>
		<path id="def-770daa63-f266-40d8-9a6d-2dcaf8ca8215_00000147919658999956929210000002436218970986024077_" class="st0" d="
			M93.5,61.3c-0.2,0.3-0.5,0.5-0.9,0.8s-0.9,0.5-1.5,0.7s-1.4,0.3-2.2,0.3l0,0c-1,0-2-0.2-2.8-0.7s-1.4-1.2-1.9-2.1
			c-0.4-0.9-0.7-2-0.7-3.2l0,0v-1.6c0-1.2,0.2-2.3,0.6-3.2c0.4-0.9,1-1.6,1.8-2.1s1.7-0.7,2.7-0.7l0,0c1,0,1.8,0.2,2.5,0.5
			s1.2,0.8,1.6,1.4c0.4,0.6,0.6,1.3,0.7,2l0,0h-1.1c-0.1-0.9-0.5-1.6-1.1-2.1s-1.4-0.8-2.6-0.8l0,0c-0.9,0-1.6,0.2-2.2,0.6
			c-0.6,0.4-1.1,1-1.4,1.7c-0.3,0.7-0.5,1.6-0.5,2.6l0,0V57c0,1,0.2,1.9,0.5,2.7c0.3,0.8,0.8,1.4,1.5,1.8c0.6,0.4,1.4,0.6,2.2,0.6
			l0,0c0.6,0,1.2-0.1,1.7-0.2s0.9-0.3,1.2-0.4c0.3-0.2,0.5-0.4,0.7-0.5l0,0v-3.4h-3.6v-1h4.7v4.7H93.5z M98.2,57.8
			c0-1,0.2-1.8,0.5-2.6c0.4-0.8,0.9-1.3,1.5-1.8c0.7-0.4,1.4-0.6,2.3-0.6l0,0c0.9,0,1.6,0.2,2.3,0.6s1.2,1,1.6,1.8
			c0.4,0.8,0.5,1.6,0.5,2.6l0,0v0.3c0,1-0.2,1.8-0.5,2.6c-0.4,0.8-0.9,1.3-1.5,1.8c-0.7,0.4-1.4,0.6-2.3,0.6l0,0
			c-0.9,0-1.6-0.2-2.3-0.6s-1.2-1-1.6-1.8c-0.4-0.8-0.5-1.6-0.5-2.6l0,0V57.8z M99.3,58.1c0,0.7,0.1,1.4,0.4,2
			c0.3,0.6,0.6,1.1,1.1,1.5s1.1,0.5,1.8,0.5l0,0c0.7,0,1.3-0.2,1.8-0.5c0.5-0.4,0.9-0.9,1.1-1.5c0.3-0.6,0.4-1.3,0.4-2l0,0v-0.3
			c0-0.7-0.1-1.4-0.4-2c-0.3-0.6-0.6-1.1-1.1-1.5s-1.1-0.6-1.8-0.6l0,0c-0.7,0-1.3,0.2-1.8,0.6s-0.9,0.9-1.1,1.5
			c-0.3,0.6-0.4,1.3-0.4,2l0,0V58.1z M111.1,57.8c0-1,0.2-1.8,0.5-2.6c0.4-0.8,0.9-1.3,1.5-1.8c0.7-0.4,1.4-0.6,2.3-0.6l0,0
			c0.9,0,1.6,0.2,2.3,0.6s1.2,1,1.5,1.8c0.4,0.8,0.5,1.6,0.5,2.6l0,0v0.3c0,1-0.2,1.8-0.5,2.6c-0.4,0.8-0.9,1.3-1.5,1.8
			c-0.7,0.4-1.4,0.6-2.3,0.6l0,0c-0.9,0-1.6-0.2-2.3-0.6s-1.2-1-1.5-1.8c-0.4-0.8-0.5-1.6-0.5-2.6l0,0V57.8z M112.2,58.1
			c0,0.7,0.1,1.4,0.4,2c0.3,0.6,0.6,1.1,1.1,1.5s1.1,0.5,1.8,0.5l0,0c0.7,0,1.3-0.2,1.8-0.5c0.5-0.4,0.9-0.9,1.1-1.5
			c0.3-0.6,0.4-1.3,0.4-2l0,0v-0.3c0-0.7-0.1-1.4-0.4-2c-0.3-0.6-0.6-1.1-1.1-1.5s-1.1-0.6-1.8-0.6l0,0c-0.7,0-1.3,0.2-1.8,0.6
			s-0.9,0.9-1.1,1.5c-0.3,0.6-0.4,1.3-0.4,2l0,0V58.1z M131,48.9h1.1v14h-1l-0.1-1.3c-0.3,0.5-0.8,0.9-1.3,1.1
			c-0.5,0.3-1.1,0.4-1.8,0.4l0,0c-0.8,0-1.4-0.2-2-0.6s-1-1-1.3-1.8s-0.5-1.6-0.5-2.6l0,0v-0.2c0-1,0.2-1.9,0.5-2.7
			c0.3-0.8,0.7-1.3,1.3-1.8c0.6-0.4,1.2-0.6,2-0.6l0,0c0.7,0,1.3,0.1,1.8,0.4s0.9,0.7,1.3,1.2l0,0V48.9z M128.2,62.2
			c0.7,0,1.3-0.2,1.8-0.5s0.8-0.8,1.1-1.3l0,0v-4.7c-0.2-0.6-0.6-1-1-1.4c-0.5-0.4-1.1-0.5-1.8-0.5l0,0c-0.6,0-1.2,0.2-1.6,0.5
			c-0.4,0.4-0.8,0.8-1,1.4s-0.3,1.3-0.3,2.1l0,0V58c0,0.8,0.1,1.5,0.3,2.1s0.5,1.1,1,1.4C127,62,127.5,62.2,128.2,62.2L128.2,62.2z
			 M148.7,52.9c1,0,1.8,0.3,2.3,0.9s0.8,1.5,0.8,2.8l0,0V63h-1.1v-6.4c0-1-0.2-1.7-0.6-2.1c-0.4-0.4-1-0.6-1.7-0.6l0,0
			c-0.7,0-1.3,0.2-1.8,0.7c-0.5,0.4-0.9,1-1.1,1.7l0,0v6.8h-1.1v-9.9h1v1.7c0.4-0.6,0.8-1,1.4-1.4C147.4,53,148,52.9,148.7,52.9
			L148.7,52.9z M164.6,58.1h-7v0.2c0,0.7,0.1,1.4,0.4,2c0.3,0.6,0.7,1.1,1.2,1.4s1.1,0.5,1.8,0.5l0,0c0.6,0,1.1-0.1,1.6-0.3
			c0.4-0.2,0.9-0.6,1.2-1l0,0l0.7,0.5c-0.4,0.5-0.8,1-1.4,1.3c-0.6,0.3-1.3,0.5-2.1,0.5l0,0c-0.8,0-1.6-0.2-2.3-0.6s-1.2-1-1.6-1.7
			c-0.4-0.7-0.6-1.6-0.6-2.5l0,0V58c0-1,0.2-1.9,0.6-2.6c0.4-0.8,0.9-1.3,1.6-1.8c0.6-0.4,1.3-0.6,2.1-0.6l0,0
			c0.8,0,1.5,0.2,2.1,0.6s1,0.9,1.3,1.6s0.5,1.5,0.5,2.3l0,0v0.6H164.6z M160.7,53.8c-0.5,0-1,0.1-1.5,0.4c-0.4,0.3-0.8,0.7-1.1,1.2
			s-0.5,1.1-0.5,1.7l0,0h5.9V57c0-0.6-0.1-1.1-0.3-1.6s-0.5-0.9-1-1.2C161.8,54,161.3,53.8,160.7,53.8L160.7,53.8z M180.1,53.1h1.1
			l-2.9,9.9h-0.8h-0.1l-2.5-7.8l-0.1-0.5l-0.1,0.5l-2.5,7.8h-0.8h-0.2l-2.9-9.9h1.1l2.1,7.6l0.2,0.8l0.2-0.9l2.4-7.5h0.8h0.2
			l2.3,7.5l0.3,1l0.2-0.9L180.1,53.1z M189,58.3c-0.8-0.2-1.4-0.4-1.9-0.6s-0.9-0.5-1.1-0.9c-0.3-0.4-0.4-0.8-0.4-1.3l0,0
			c0-0.5,0.1-0.9,0.4-1.3s0.7-0.7,1.2-1c0.5-0.2,1.1-0.4,1.8-0.4l0,0c0.7,0,1.4,0.1,1.9,0.4c0.6,0.3,1,0.6,1.3,1s0.4,1,0.4,1.5l0,0
			h-1.1c0-0.3-0.1-0.7-0.3-1c-0.2-0.3-0.5-0.6-0.9-0.7c-0.4-0.2-0.8-0.3-1.4-0.3l0,0c-0.5,0-1,0.1-1.3,0.2c-0.4,0.2-0.6,0.4-0.8,0.6
			c-0.2,0.3-0.3,0.5-0.3,0.8l0,0c0,0.3,0.1,0.6,0.2,0.8c0.1,0.2,0.4,0.4,0.8,0.6s0.9,0.4,1.7,0.5l0,0c0.8,0.2,1.5,0.4,2,0.7
			c0.5,0.3,0.9,0.6,1.1,0.9c0.2,0.4,0.4,0.8,0.4,1.3l0,0c0,0.5-0.2,1-0.5,1.4s-0.7,0.7-1.3,1c-0.6,0.2-1.2,0.3-1.9,0.3l0,0
			c-0.8,0-1.5-0.1-2.1-0.4s-1-0.6-1.3-1.1s-0.5-0.9-0.5-1.5l0,0h1.1c0,0.7,0.3,1.2,0.9,1.5c0.5,0.3,1.2,0.5,1.9,0.5l0,0
			c0.5,0,1-0.1,1.4-0.2c0.4-0.2,0.7-0.4,0.9-0.6c0.2-0.3,0.3-0.6,0.3-0.9l0,0c0-0.5-0.2-0.9-0.6-1.2C190.7,58.8,190,58.5,189,58.3
			L189,58.3z"/>
	</g>
</g>
<g class="st1">
	<rect x="-326.5" y="-325.3" class="st2" width="1524.1" height="980"/>
	<rect x="-326.5" y="-325.3" class="st3" width="1524.1" height="980"/>
</g>
<g class="st1">
	<path class="st4" d="M-64.4-335.3L-64.4-335.3L-64.4-335.3z"/>
	<path class="st5" d="M-64.4-335.3L-64.4-335.3L-64.4-335.3z"/>
</g>
</svg>
